<?xml version="1.0" encoding="UTF-8" standalone="no"?>
<!-- Created with Inkscape (http://www.inkscape.org/) -->

<svg
   version="1.1"
   id="svg914"
   width="256"
   height="256"
   viewBox="0 0 256 256"
   sodipodi:docname="openlyrics.svg"
   inkscape:version="1.1.1 (1:1.1+202109281944+c3084ef5ed)"
   xmlns:inkscape="http://www.inkscape.org/namespaces/inkscape"
   xmlns:sodipodi="http://sodipodi.sourceforge.net/DTD/sodipodi-0.dtd"
   xmlns:xlink="http://www.w3.org/1999/xlink"
   xmlns="http://www.w3.org/2000/svg"
   xmlns:svg="http://www.w3.org/2000/svg">
  <defs
     id="defs918">
    <linearGradient
       inkscape:collect="always"
       id="linearGradient20197">
      <stop
         style="stop-color:#5ea4eb;stop-opacity:1"
         offset="0"
         id="stop20195" />
      <stop
         style="stop-color:#004488;stop-opacity:1;"
         offset="1"
         id="stop20193" />
    </linearGradient>
    <linearGradient
       id="linearGradient10460"
       x1="80.238998"
       gradientUnits="userSpaceOnUse"
       x2="18.903999"
       gradientTransform="matrix(1.7178479,0,0,2.2048442,27.804482,30.953192)"
       y1="81.056"
       y2="13.945">
      <stop
         id="stop8159"
         offset="0" />
      <stop
         id="stop8161"
         stop-color="#606060"
         offset="1" />
    </linearGradient>
    <linearGradient
       id="linearGradient10462"
       x1="-19.040001"
       xlink:href="#linearGradient3579"
       gradientUnits="userSpaceOnUse"
       x2="15.224"
       gradientTransform="matrix(2.469916,-0.25625549,0.15741019,1.5171952,27.804482,30.953192)"
       y1="52.714001"
       y2="111.34" />
    <linearGradient
       id="linearGradient3579">
      <stop
         id="stop3581"
         stop-color="#fff"
         offset="0" />
      <stop
         id="stop3583"
         stop-color="#fff"
         stop-opacity="0"
         offset="1" />
    </linearGradient>
    <linearGradient
       id="linearGradient10464"
       x1="71.087997"
       xlink:href="#linearGradient3579"
       gradientUnits="userSpaceOnUse"
       x2="97.343002"
       gradientTransform="matrix(1.1764943,-0.1220634,0.3304639,3.1851426,27.804482,30.953192)"
       y1="-6.6212001"
       y2="37.164001" />
    <linearGradient
       id="linearGradient10466"
       x1="95.224998"
       xlink:href="#linearGradient3579"
       gradientUnits="userSpaceOnUse"
       x2="156.67999"
       gradientTransform="matrix(1.1348263,0,0,3.3377243,27.804482,30.953192)"
       y1="4.4250998"
       y2="20.792999" />
    <radialGradient
       inkscape:collect="always"
       xlink:href="#linearGradient20197"
       id="radialGradient24189"
       cx="-186.25858"
       cy="76.004181"
       fx="-186.25858"
       fy="76.004181"
       r="128"
       gradientUnits="userSpaceOnUse"
       gradientTransform="matrix(1.0222095,1.012343,-0.95537687,0.96468793,329.41013,177.11646)" />
  </defs>
  <sodipodi:namedview
     id="namedview916"
     pagecolor="#ffffff"
     bordercolor="#111111"
     borderopacity="1"
     inkscape:pageshadow="0"
     inkscape:pageopacity="0"
     inkscape:pagecheckerboard="1"
     showgrid="false"
     inkscape:zoom="1.4007568"
     inkscape:cx="232.73134"
     inkscape:cy="95.305626"
     inkscape:window-width="1868"
     inkscape:window-height="1016"
     inkscape:window-x="52"
     inkscape:window-y="27"
     inkscape:window-maximized="1"
     inkscape:current-layer="layer2" />
  <g
     inkscape:groupmode="layer"
     id="layer1"
     inkscape:label="Background"
     style="display:inline">
    <rect
       style="display:inline;fill:url(#radialGradient24189);fill-opacity:1;stroke:#00274e;stroke-width:10;stroke-miterlimit:4;stroke-dasharray:none;stroke-dashoffset:0;paint-order:markers fill stroke;stop-color:#000000"
       id="rect1478"
       width="246"
       height="246"
       x="5"
       y="5"
       rx="24.566929"
       ry="24.566929" />
  </g>
  <g
     inkscape:groupmode="layer"
     id="layer2"
     inkscape:label="Note (https://freesvg.org/musical-note-vector-drawing)"
     style="display:inline">
    <path
       id="path9681"
       d="m 162.09194,35.453768 c -8.139,13.084073 -10.04626,30.313932 -15.86928,44.929856 L 122.9851,153.86805 c -21.40621,-24.3216 -67.394792,-9.24053 -70.063026,23.27455 -5.714806,30.5358 29.992811,58.16203 58.202906,44.17279 26.61422,-13.98731 27.34209,-47.927 36.94462,-72.97454 6.94402,-23.0118 13.88999,-46.02361 20.83402,-69.035418 7.12113,18.619247 17.24523,44.816968 -1.59004,59.935018 -11.75113,5.54666 -8.33945,27.3129 6.27258,22.8386 25.57495,-10.62428 35.05681,-45.55264 23.46138,-69.790551 -8.60023,-18.08599 -19.48336,-35.356524 -29.62109,-52.708798 -1.48494,-1.328862 -2.46388,-5.897165 -5.33451,-4.12496 z"
       style="stroke-width:0.96927" />
    <path
       id="path1291"
       sodipodi:nodetypes="cccccccccccccccccc"
       fill="url(#linearGradient10460)"
       d="m 163.37253,38.934537 -4.50934,14.287017 -34.14793,108.161736 c -7.65633,-10.79165 -20.57907,-17.3698 -34.669517,-15.9082 -20.804824,2.15832 -35.93649,20.7912 -33.776213,41.59797 2.15833,20.80677 20.791201,35.93648 41.59797,33.77816 16.40253,-1.70293 29.11508,-13.72263 32.77003,-28.89905 L 168.33728,67.290598 c 3.291,5.762683 7.16199,19.158343 9.81854,26.91393 3.1723,9.252202 4.92193,19.064932 3.60825,27.690462 -1.31562,8.62748 -5.1905,16.21959 -14.68793,22.8639 -2.53395,1.48105 -4.015,4.25632 -3.83984,7.18535 0.17516,2.93097 1.97344,5.50384 4.66502,6.66961 2.69354,1.16772 5.81718,0.73372 8.07476,-1.14242 12.69115,-8.87854 19.27707,-20.98971 21.13763,-33.1943 1.86056,-12.20459 0.72788,-24.455885 -4.30692,-33.211815 -9.84775,-15.355478 -15.96075,-27.684623 -21.22716,-36.469747 -2.4269,-5.252585 -5.47075,-10.440752 -8.2071,-15.661031 z"
       style="fill:url(#linearGradient10460);stroke-width:0.96927" />
    <path
       id="path2057"
       sodipodi:nodetypes="cccc"
       fill="url(#linearGradient10462)"
       d="m 82.965486,148.53256 c -14.201385,4.58524 -21.88107,15.04603 -24.267105,27.69046 12.936357,55.38287 28.044669,-22.1477 64.987339,-12.04111 0.7162,-3.87293 -17.44375,-22.51553 -40.720234,-15.64935 z"
       style="fill:url(#linearGradient10462);stroke-width:0.96927" />
    <path
       id="path3587"
       sodipodi:nodetypes="cccc"
       fill="url(#linearGradient10464)"
       d="m 126.48825,161.21981 c 9.34367,-4.42176 28.61684,-97.971459 40.82143,-97.99676 -3.581,-0.836864 -4.22518,-6.305671 -4.449,-19.055973 -0.63835,2.047202 -35.954,117.484003 -36.37243,117.051943 z"
       style="fill:url(#linearGradient10464);stroke-width:0.96927" />
    <path
       id="path5873"
       sodipodi:nodetypes="ccc"
       fill-rule="evenodd"
       fill="url(#linearGradient10466)"
       d="m 167.03916,63.750469 c 0,0 43.62785,65.904001 12.6853,69.926781 7.11724,-8.35307 7.42668,-32.17839 -12.6853,-69.926781 z"
       style="fill:url(#linearGradient10466);stroke-width:0.482461" />
  </g>
</svg>
