<svg width="24px" height="25px" viewBox="0 0 24 25" version="1.1" xmlns="http://www.w3.org/2000/svg" xmlns:xlink="http://www.w3.org/1999/xlink">
  <g stroke="none" stroke-width="1" fill="none" fill-rule="evenodd">
    <g>
      <rect fill="#FFFFFF" x="0" y="0" width="24" height="25"/>
      <g transform="translate(1.000000, 1.000000)" fill="#0D1214">
        <path d="M18,10 C18,14.4183 14.4183,18 10,18 C5.58172,18 2,14.4183 2,10 C2,5.58172 5.58172,2 10,2 C14.4183,2 18,5.58172 18,10 Z M15.7608,18.175 C14.1323,19.3246 12.145,20 10,20 C4.47715,20 0,15.5228 0,10 C0,4.47715 4.47715,0 10,0 C15.5228,0 20,4.47715 20,10 C20,12.6561 18.9645,15.0703 17.2752,16.8609 L21.7071,21.2929 C22.0976,21.6834 22.0976,22.3166 21.7071,22.7071 C21.3166,23.0976 20.6834,23.0976 20.2929,22.7071 L15.7608,18.175 Z"/>
      </g>
    </g>
  </g>
</svg>
